<?xml version="1.0" encoding="utf-8"?>
<!-- Generator: Adobe Illustrator 26.3.1, SVG Export Plug-In . SVG Version: 6.00 Build 0)  -->
<svg version="1.1" id="Layer_1" xmlns="http://www.w3.org/2000/svg" xmlns:xlink="http://www.w3.org/1999/xlink" x="0px" y="0px"
	 viewBox="0 0 1000 230" style="enable-background:new 0 0 1000 230;" xml:space="preserve">
<style type="text/css">
	.st0{fill:#211F1D;}
</style>
<g>
	<path class="st0" d="M50.9,160.9c-0.5,0-1.2,0-2.1-0.1c-0.9-0.1-1.9-0.2-3-0.3c-5.9,0.2-11.5-1.8-16.9-6c-4.8-4-7.1-8.5-7.1-13.3
		c0-4.1,1.8-8.3,5.3-12.6c1.8,0.3,2.8,0.8,3.1,1.6c0.3,0.8,0.3,2.5-0.1,5.2c0,0.1,0,0.3,0.1,0.7c0.1,0.3,0.2,0.7,0.3,1
		c4.9,2.3,10.7,3.4,17.5,3.4c5,0,9.9-0.6,14.7-1.8c4.8-1.2,8.9-2.8,12.3-4.8s5.7-4.3,6.7-6.8c0.6-1.8-0.2-4.4-2.4-7.8
		c-2.3-3.4-5.3-7.3-9.1-11.6c-3.8-4.3-7.9-8.4-12.1-12.4c-3-2.8-5.9-5.5-8.6-8.1c-2.7-2.6-5.3-5.3-7.8-7.9c-2.8-3-4.9-6.5-6.5-10.4
		s-2.3-8-2.3-12.3c0-5.8,1.5-11.2,4.4-16.3s7.4-9.3,13.2-12.6c11.3-6.4,22.8-9.6,34.6-9.6c0.9,0,1.9,0,3,0.1s2.4,0.2,3.9,0.3
		c1.4,0.1,2.6,0.3,3.6,0.6s1.8,0.5,2.4,0.8c3.1,1.3,4.7,3,4.7,5.3s-1.6,5.1-4.7,8.6c-0.6-0.1-1.4-0.2-2.4-0.2s-2.2,0-3.6,0
		c-11,0-22,3.2-32.9,9.6c-2.6,1.6-4.9,3.7-6.8,6.2c-1.4,1.6-2.1,3.4-2.1,5.3c0,3.3,1.9,6.5,5.6,9.8c1.8,1.9,4.1,4.5,7.1,7.9
		c3,3.4,6.6,7.6,10.7,12.6l4.3,4.5c4.1,4.4,7.6,8.3,10.5,11.7s5.4,6.8,7.5,10.1s4,7,5.6,11c1,2.8,1.5,5.1,1.5,7.1
		c0,5.4-2.1,10.3-6.2,14.8c-4.8,5.3-10.3,9.1-16.5,11.6c-6.3,2.4-13.3,4-21.2,4.6c-1,0.1-2.2,0.2-3.6,0.4
		C54.2,160.9,52.6,160.9,50.9,160.9z"/>
	<path class="st0" d="M158.2,153.2c-3.5,0-7.2-0.5-11-1.6s-7.3-2.5-10.4-4.3c-3.1-1.8-5.5-3.8-7.1-5.9c-2.5-3.8-3.7-7.5-3.6-11.3
		c0.2-6.1,2.8-12.2,7.5-18c3.3-3.9,6.2-7,8.9-9.2c2.7-2.3,5.6-4,8.8-5.2s7-2,11.6-2.3c1,0,2.3-0.1,4-0.4c1.7-0.2,3.2-0.6,4.6-1
		c1.4-0.4,2.1-0.9,2.1-1.4c0-1.8-0.8-3.4-2.3-4.9c-1.8-1.4-5-2.1-9.6-2.1c-0.9,0-2,0-3.3,0.1s-2.9,0.2-4.6,0.3
		c-1.8,0.1-3.3,0.2-4.5,0.3c-1.3,0.1-2.2,0.1-2.8,0.1c-4.1,0-7.2-0.7-9.2-2.1c-0.5-0.1-0.8-1.3-0.8-3.6c0-3.9,1.3-6.3,3.9-7.1
		c2.8-1,5.5-1.8,8.3-2.3s5.6-0.8,8.5-0.9c7.3,0,14,1.6,20.2,4.8s10.7,7.2,13.6,11.9c2.9,4.6,4.8,11.2,5.6,19.7
		c0.5,4.6,0.9,10,1.1,16c0.2,6,0.4,12.7,0.4,19.9c0,4-0.6,6.3-1.7,7c-1,0.6-1.9,0.9-2.8,0.9c-1.1,0-2.4-0.4-3.9-1.2
		c-1.5-0.8-2.8-1.8-3.9-3.1l-1.3-2.3c-0.5-1.4-1.1-2.1-1.7-2.3c-1.1,0-2.4,0.5-3.8,1.6c-1.4,1.1-2.6,2.2-3.6,3.3
		c-0.8,0.8-1.5,1.4-2.3,2.1c-0.8,0.6-1.6,1.2-2.4,1.7c-1.4,0.9-4.1,1.7-8.3,2.4c-0.9,0.1-1.7,0.2-2.3,0.3S158.8,153.2,158.2,153.2z
		 M152.3,140.1c0.9,0,1.7-0.1,2.4-0.4c2.9-0.9,5.8-1.8,8.7-2.9s5.8-2.2,8.6-3.5c1.3-0.6,2.4-1.7,3.4-3.2s1.6-2.4,1.9-2.8
		c0.2-0.4,0.5-1.5,0.7-3.3s0.2-3.3,0.1-4.4c-0.3-0.4-0.4-1.4-0.6-3c-0.1-0.9-0.3-1.7-0.7-2.3c-0.3-0.7-0.6-1.3-0.8-2
		c-0.6-1-1.6-1.9-3-2.8c-1.4-0.9-2.6-1.3-3.8-1.1c-2.4,0.1-5,1-7.7,2.6c-2.8,1.6-5.3,3.8-7.7,6.6c-2.4,2.9-4.2,5.8-5.5,8.7
		c-1.3,2.9-2,5.7-2,8.2c0.1,2,1.1,3.6,2.8,4.7C150.2,139.8,151.2,140.1,152.3,140.1z"/>
	<path class="st0" d="M239.2,153c-2.3,0-4.3-0.3-6.2-0.9c-5.5-2.1-8.3-5.9-8.3-11.5c0-1.1,0.1-1.9,0.2-2.3c0.1-0.9,0.2-1.9,0.3-3.2
		c0.1-1.3,0.1-2.7,0.1-4.3l-0.2-10.9l-2.3-32.1l-0.2-2.6c0-6.5,2.8-9.8,8.3-9.8c1.5,0,2.8,0.4,3.8,1.3c1,1,1.9,1.5,2.8,1.5
		c1.8,0,3.4-0.8,4.9-2.4c1.4-1.8,2.9-3.4,4.5-5.1c2.5-2.6,5.5-4.8,9-6.4c3.5-1.6,7.1-2.4,10.7-2.4s6.4,0.4,8.3,1.3
		c0.8,0.3,1.4,0.9,1.9,2s0.7,2.1,0.7,3.1c-0.1,1-0.7,1.7-2,2.1c-4.6,0.9-8.8,2.9-12.4,6c-3.5,3.1-7.3,10.6-11.5,22.4
		c-1.1,3.9-2,7.8-2.5,11.8c-0.6,4-0.8,9.1-0.7,15.2c-0.1,0.3-0.2,0.6-0.2,1s0,0.9,0,1.4c0,0.9,0,1.9,0.1,2.9
		c0.1,1.1,0.2,2.3,0.3,3.7c0.1,1.4,0.2,2.6,0.3,3.7s0.1,1.9,0.1,2.5c0,6.1-0.6,9.6-1.9,10.5C244.8,152.6,242.2,153,239.2,153z"/>
	<path class="st0" d="M343.8,162.8c-1.9,0-3.8-0.6-5.8-1.9c-0.6-0.5-1.2-0.9-1.6-1.2c-0.4-0.3-0.8-0.5-1-0.7
		c-0.5-0.1-1.1-1.2-1.9-3.2l-1.5-3.6l-0.9-4.3c-3.5,0.8-6.3,1.3-8.4,1.8c-2.1,0.4-3.4,0.7-4,0.8c-0.9,0.1-1.7,0.2-2.3,0.2
		c-0.7,0-1.3,0-1.8,0c-2.3,0-4.8-0.2-7.6-0.7c-2.8-0.4-5.6-1.5-8.4-3.2s-5.2-4.3-7.2-7.7c-2.1-3.4-3.6-8.2-4.6-14.2
		c0.1-4.3,1.7-8.1,4.7-11.5c6.8-8,13.5-11.1,20.1-9.2c2.9,0.6,5.8,1.6,8.6,3c1.5,0.8,3.4,1.6,5.6,2.6c2.3,1,4.9,2.2,8.1,3.6l0.8-5.3
		c0.9-6,1.3-9.6,1.1-10.9c0-3.5-0.9-6.5-2.8-8.8c-1.9-2.4-3.3-3.5-4.1-3.4c-1.6,0.3-3.3,0.5-4.9,0.8s-3.3,0.7-4.9,1
		c-3,0.9-7.5,1.3-13.3,1.3c-1.5,0-3-0.6-4.5-1.8s-2.2-2.5-2.1-4c0.4-2.1,1.5-4.4,3.4-6.8c1.3-1.5,2.8-2.3,4.7-2.4
		c1.3-0.2,2.3-0.4,3.3-0.5c0.9-0.1,1.8-0.2,2.5-0.3c3.9-0.9,7.3-1.5,10.2-1.9c2.9-0.4,5.4-0.6,7.4-0.6c5.8,0,10.5,1.7,14.2,5
		s6.2,7.7,7.6,13.2c0.8,2.8,1,6.1,0.8,10.1c-0.1,1-0.2,2.3-0.2,3.8s-0.1,3.3-0.2,5.3c-0.1,1.6-0.3,3.6-0.5,6s-0.5,5.2-0.8,8.5
		c-0.4,3.1-0.7,5.9-0.8,8.2c-0.2,2.3-0.3,4.3-0.5,5.9c-0.1,1.1-0.2,2.5-0.2,4.2s0,3.6,0,5.7l0.2,15.2
		C347.6,162.3,345.5,162.8,343.8,162.8z M313.8,135.6c0.2,0,0.6,0,1-0.1s0.9-0.2,1.4-0.3c3-0.9,5.7-1.9,8.2-3.1
		c2.4-1.2,4.4-3,5.9-5.4c-4.5-3.5-8.2-5.9-11-7.3c-2.8-1.4-5.4-2.1-7.6-2.1c-0.9,0-1.9,0.2-3.2,0.6c-1.3,0.4-2.2,0.9-2.8,1.7
		c-1.1,1.3-1.7,3.2-1.7,5.8c0,2.3,0.4,4.2,1.3,5.8C307.4,134.1,310.3,135.6,313.8,135.6z"/>
	<path class="st0" d="M455.3,150.6c-3.4-1.5-6-3.4-8-5.5c-1.9-2.2-3.3-5-4-8.5c-0.8-4.3-1.9-8.4-3.5-12.5s-3-8.1-4.4-12.1
		c-0.5-1.9-1.3-2.8-2.3-2.7c-1.1,0.1-2.3,0.7-3.7,2c-4,5-6.8,10.6-8.4,16.6c-1.6,6.1-3.4,12.1-5.5,17.9c-0.5,2-1.7,3.6-3.5,4.7
		s-3.8,1-5.9-0.4c-2.3-1.4-4.5-3.1-6.8-5.3c-2.3-2.1-3.3-5.3-3-9.6c0.2-4.5,0.3-9.1,0.1-13.9c-0.2-4.8-0.4-9.5-0.7-14.1
		c0-1-0.4-2-1.2-3.1c-0.8-1.1-1.5-2-2-2.9c-1.3,0.9-2.4,1.6-3.4,2.3c-1,0.6-2,1.2-3,1.7c-1.6,0.5-3.2,1.1-4.7,1.8s-3,1-4.5,0.8
		c-1.8-0.2-3.5-1-5.2-2.3s-3.2-2.6-4.6-3.9c-0.1-0.2,0.4-1.3,1.6-3.1s2.5-3.2,3.9-4.2c2.4-1.9,4.8-3.8,7.1-5.7
		c2.4-1.9,5-3.5,7.9-4.8s6.1-1.7,9.6-1.3c4,0.3,7.3,1.6,10,4s4.2,5.9,4.7,10.2c0,0.9,0,2.4-0.1,4.7s0,4.1,0.1,5.6
		c1.4-0.9,2.7-2.2,4-3.9c1.3-1.8,2.3-3.1,2.9-3.9c3.1-2.8,6.5-4.3,10.2-4.7s7.2,0.3,10.6,1.9c2.9,1.3,5.4,3.3,7.5,6.1
		s3.8,5.7,5.1,8.7c1.8,3.8,3.2,7.8,4.2,12c1.1,4.3,2.1,8.4,3.1,12.4c0.4,1.9,0.7,3.7,0.9,5.5c0.2,1.8,0.4,3.6,0.4,5.6
		c0.2,1.6-0.2,2.8-1.4,3.6C458.3,151,456.9,151.1,455.3,150.6z"/>
	<path class="st0" d="M503,223c-5.3,0.1-10.8-0.8-16.5-2.6c-2.8-1-5.4-2.9-7.9-5.8c-2.6-2.8-5.4-9.2-8.5-19.4c0.1-0.6,0.4-1.3,0.8-2
		s0.8-1.1,1.3-1.2c0.1-0.1,0.4-0.2,0.8-0.2s0.9,0.2,1.6,0.5s1.2,0.5,1.4,0.7c0.8,0.2,1.2,0.8,1.3,1.7c1.8,3.9,3.7,7,5.8,9.2
		c2.1,2.3,4.9,3.3,8.5,3c13-1,21.9-4.6,26.5-10.7c1.6-2,3-4.3,4-6.9c1.1-2.6,1.6-5,1.6-7.2c0-3.3-0.8-5.6-2.3-7.1
		c-1.6-1.5-4-2.6-7.2-3.2c-3.5-0.6-6.9-1.5-10.1-2.6s-7-2.8-11.6-5.1c-2.3-1.1-3.8-2.1-4.7-3c-0.9-0.9-1.3-1.9-1.3-3.2
		c0-1.4,0.8-4.6,2.3-9.6c0.2-0.5-0.2-1.2-1.4-2.3c-1.2-1-2.6-2-4.3-3.1c-1.7-1.1-3.2-2-4.4-2.7c-6.8-4-10.1-10.5-10.1-19.5
		c0-2.5,0.2-4.9,0.6-7.1c2.3-13.7,9-23.4,20.1-29.3c2.8-1.4,5.5-2.1,8.3-2.1c2.1,0,4.3,0.3,6.6,0.9c2.3,0.6,3.6,1,3.9,1.1l3.9,1.1
		c1.6,0.5,3.4,0.8,5.4,0.8c4.5,0,8.6-1.8,12.4-5.5c2.8-2.4,5.8-3.6,9.2-3.6c2.4,0,4.5,0.7,6.4,2s3.3,3.2,4.1,5.7
		c0.1,0.5,0.2,1,0.3,1.4s0.1,0.8,0.1,1c0,1.1-0.2,2-0.6,2.6c-0.1,0.3-0.5,0.8-1,1.6c-0.6,0.8-1.3,1.9-2.2,3.3
		c-0.9,1.6-1.7,3-2.4,4.1c-0.8,1.1-1.9,2.4-3.6,3.8c-0.5,0.3-1.1,0.5-1.7,0.8c-0.6,0.3-1.3,0.4-1.9,0.6c-1.4,0.4-2.7,1.2-3.9,2.4
		c-0.1,4.5-0.3,8.3-0.4,11.4c-0.1,3.1-0.6,6.1-1.5,9.1s-2.7,6.6-5.4,10.9s-6.8,9.9-12.3,16.9l6.6,3.6c2,1.1,3.8,2.1,5.3,2.8
		c1.5,0.8,2.7,1.4,3.6,1.9c5.6,2.6,9.9,6,12.8,10.1c2.9,4.1,4.3,8.6,4.3,13.4c0,6-2,12-6,17.9c-4.3,6.3-9.6,10.9-16,14
		C517.1,221.2,510.3,222.8,503,223z M499.8,134.1c4.8-1.9,8.5-5.1,11.1-9.8c2.6-4.6,3.9-9.7,3.9-15.2c0-3.4-0.5-6.5-1.5-9.2
		c-1-2.8-3-4.9-6-6.4c-5.6,2.1-10.4,5.5-14.3,10c-3.9,4.4-5.8,9-5.8,13.7c0,3.3,1,6.4,3.1,9.3C492.4,129.4,495.6,131.9,499.8,134.1z
		"/>
	<path class="st0" d="M610.3,166.4c-5.3,0-10.5-0.4-15.6-1.1c-6.9-1-14-4.4-21.4-10.1c-5.6-4.8-8.5-10.5-8.5-17.1
		c0-2.5,0.2-4.6,0.8-6.2c1.3-5.1,2.5-9.9,3.8-14.4c1.3-4.4,2.6-8.6,3.9-12.5c2.5-7.4,5-14.6,7.6-21.7c2.6-7.1,5.2-14.1,7.8-21
		l4.5-12.4c-3.8-0.4-5.6-1.8-5.6-4.3c0-0.9,0.2-1.8,0.6-2.6c1.5-3.4,2.9-6.3,4.1-8.7c1.3-2.4,2.3-4.5,3.2-6.1
		c1.4-2.4,2.8-4.6,4.1-6.7c1.4-2.1,2.7-4,3.9-5.9l5.1-7.7c1.9-0.5,3.3-0.8,4.3-0.8c1.8,0,3.4,0.3,4.9,0.8l8.5,3.4
		c3.1,1.3,4.7,3.7,4.7,7.3c0,1.8-0.3,3.3-0.8,4.7c-1,3.5-2.4,7.8-4.2,12.9c-1.8,5.1-4,11-6.5,17.8L611,76c-3.3,8.4-6.1,15.7-8.5,22
		s-4.3,11.5-5.8,15.8c-0.9,2.6-1.7,5.4-2.3,8.2c-0.7,2.8-1.3,5.8-1.8,8.9l-2.1,10.9c-0.1,0.9-0.2,1.6-0.3,2.2s-0.1,1-0.1,1.2
		c0,1.9,0.5,3.3,1.6,4.1c1.1,0.9,2.8,1.6,5.4,2.1c2,0.3,4.3,0.5,6.8,0.7s5.2,0.3,8.1,0.3c19.5-0.2,38.7-3.3,57.5-9
		c0.1,0.1,0.2,0.2,0.4,0.2l0.4,0.4l2.1,6.2c-2.9,3.4-6.2,5.9-10.1,7.7c-3.8,1.8-8.6,3.4-14.4,4.9c-3,0.8-6,1.4-8.8,1.9
		c-2.9,0.5-6.1,0.9-9.8,1.1c-3.6,0.2-8.1,0.5-13.5,0.8c-0.6,0.1-1.4,0.2-2.3,0.2C612.6,166.4,611.6,166.4,610.3,166.4z"/>
	<path class="st0" d="M760.8,153.4c-1.8,0.8-4,0.3-6.7-1.3c-2.7-1.6-4.7-3.6-6.1-6c-2.1-4.1-3.6-6.6-4.5-7.4s-1.8-0.6-2.6,0.6
		c-0.9,1.2-2.4,2.7-4.7,4.6c-2.8,2.3-6.1,3.6-10,4s-7.8,0.2-11.8-0.7c-4-0.9-7.7-2.3-11-4.2c-3.3-1.9-5.8-4.2-7.4-6.7
		c-3.5-5.6-6.1-11.6-7.7-17.9c-1.6-6.3-2.6-12.9-2.8-19.8c0.4-1.9,0.5-3.9,0.5-6.1c-0.1-2.2,0.3-4.2,1.2-6s2.8-3,5.6-3.7
		c4.3-1.1,8.3-0.6,12.2,1.7c0.9,0.4,1.5,1.5,1.9,3.3s0.6,3.7,0.8,5.7c0.1,2,0.3,3.7,0.6,5.1c0.6,3.3,1,5.6,1,7
		c0.1,1.4,0.1,2.8,0.1,4.1c0,1.4,0.3,3.7,0.9,7c0.1,0.5,0.5,1.5,1.1,2.9s1.4,3,2.3,4.7c0.9,1.7,1.7,3.1,2.3,4.2
		c0.7,1.1,1.1,1.7,1.2,1.7c1.4-0.4,2.7-0.9,3.9-1.7c1.3-0.8,2.3-1.6,3-2.6c3.4-5.1,6.2-10.5,8.5-16.1s3.8-11.4,4.7-17.6
		c0.6-3.9,2.2-6.6,4.7-8.2c2.5-1.6,5.7-1.8,9.6-0.8c4,0.9,6.1,2.2,6.3,3.9s-0.3,4.7-1.4,9.1c-1.6,6.1-2,12.2-1,18.3
		c0.9,6.1,2.2,12.1,3.9,18.1c0.5,1.9,1,3.7,1.5,5.5s0.9,3.6,1.3,5.4c0.5,2,0.8,4,0.8,6C762.9,151.5,762.2,152.8,760.8,153.4z"/>
	<path class="st0" d="M796.2,161.5c-1.6,0.8-3.3,0.6-5.1-0.4s-2.9-2.8-3.6-5.4c-0.4-1.9-0.6-4-0.7-6.5c-0.1-2.4-0.1-4.9-0.1-7.2
		c0.8-31.9,1.1-63.7,1.1-95.3c0-5.6,0.6-9.6,1.7-12c1.1-2.4,3.4-3.6,6.8-3.6c3.6,0,6.6,1.2,8.9,3.6c2.3,2.4,3.5,5.8,3.5,10.1
		c0,3.3-0.2,6.5-0.5,9.9c-0.3,3.3-0.6,6.9-0.8,10.6c0,1.1,0,2.4,0.1,3.9s0.2,3.4,0.5,5.6c3.6-3.6,6.9-6.8,9.9-9.4
		c2.9-2.6,5.9-5.3,8.9-7.9c2-2.4,4.3-3.8,7-4.3c2.6-0.5,5.2-0.2,7.7,0.8c2.5,1.1,4.5,2.8,6,5.2c-3.9,4.6-8,9.4-12.2,14.3
		c-4.3,4.9-8.4,9.7-12.4,14.5c-1.6,1.4-2.8,2.8-3.6,4.1c-1.4,2-3,4.2-5,6.5c-1.9,2.3-2.7,4.2-2.3,5.5c1,2.3,2.7,4.4,5,6.3
		c2.3,1.9,4.5,3.9,6.7,5.7c3.6,3.1,7.1,6.5,10.5,10.1c3.4,3.6,6.7,7,10,10.2c0.2,0.9,0.6,1.6,0.9,2.3c0.4,0.6,0.6,1.3,0.8,2.1
		c-2.3,2.4-4.6,3.5-7.1,3.4s-4.7-1-6.6-2.6c-3.4-2.5-6.8-5.1-10.1-7.8c-3.4-2.7-6.7-5.2-10-7.4c-0.9-1-1.9-1.8-3.2-2.5
		s-2.9-1.7-5.1-2.9c-0.1,3.3-0.2,6.1-0.3,8.6s-0.3,5.1-0.8,7.9c0,3.1-0.1,6.1-0.2,8.8c-0.1,2.8-0.5,5.6-1.1,8.5
		c-0.3,1.4-0.9,2.7-2,3.9C798.2,159.9,797.2,160.9,796.2,161.5z"/>
	<path class="st0" d="M882,70.9l-7.5-1.3c-4.6-0.8-6.9-4.2-6.8-10.3c-1-1-1.5-2.2-1.5-3.6c0-0.9,0.2-1.7,0.8-2.3
		c0.5-0.7,1.3-1,2.4-1c4.5,0,9.8,1.6,16,4.7c0.8,0.1,1.4,1.2,2,3.1c0.6,1.9,0.7,3.5,0.3,4.8c-0.1,0.9-0.9,1.9-2.3,3
		C883.8,69.2,882.7,70.2,882,70.9z M886.6,153.8c-3.1,0-5.8-0.9-8-2.6c-2.2-1.8-3.5-4-4-6.8l-4.9-39.8l-0.8-3.6
		c0.6-2.6,0.9-4.6,0.9-6c0-1.8,0.5-3.1,1.6-4.1s3.1-1.5,6.1-1.5c3.5,0,6.6,1.1,9.3,3.3s4.4,5,5,8.6c0.4,1.8,0.6,3.7,0.8,5.8
		c0.1,2.1,0.2,3.5,0.2,4.1l2.6,32.1c0.2,3.4-0.3,6-1.5,7.8C892.6,152.9,890.2,153.8,886.6,153.8z"/>
	<path class="st0" d="M936.2,157.7c-10.5,0-17.2-4.5-20.1-13.5c1,0,2.3,0,4,0.1s3.1,0.2,4.2,0.5c0.9,0.1,1.6,0.2,2.3,0.3
		c0.6,0.1,1.1,0.1,1.5,0.1c5.6,0,10.3-2.5,14.1-7.5c2.6-3.6,3.9-7.3,3.9-11.1c0-2.5-0.6-4.9-1.9-7.3c-1.4-2.5-2.9-5.1-4.6-7.8
		c-1.7-2.7-3.5-5.5-5.5-8.4c-1.3-2-2.5-3.9-3.8-5.7s-2.4-3.6-3.4-5.4c-2.5-4-3.8-8.5-3.8-13.3c0-4.5,1.3-8.5,3.9-11.9
		c2.6-3.4,6.4-5.6,11.4-6.5l6-1.1c3.3-0.6,6.1-1.1,8.6-1.4c2.4-0.3,4.5-0.5,6.1-0.5c5.3,0,10,1.3,14.3,3.8c0.9,0.6,1.8,1.7,2.7,3.3
		s1.7,2.8,2.2,3.7c-0.5,0.1-1,0.3-1.6,0.7c-0.6,0.3-1.2,0.7-2,1c-0.9,0.5-1.6,0.8-2.3,1c-0.6,0.2-1.3,0.3-1.9,0.5
		c-0.9,0.1-2,0.2-3.3,0.3s-2.9,0.1-4.6,0.1c-1.6,0-3.1,0-4.4,0s-2.4,0.1-3.3,0.2c-4,0.4-7.2,1.7-9.5,4s-3.5,5.1-3.5,8.4
		c0,2.5,0.8,5.1,2.3,7.7c3.3,5.4,8,11.8,14.1,19.4c4.5,5.6,6.8,11.5,6.8,17.5c0,3.3-0.8,6.7-2.3,10.3
		C957.8,151.5,948.9,157.7,936.2,157.7z"/>
</g>
</svg>
